<svg width="22" height="22" viewBox="0 0 22 22" fill="none" xmlns="http://www.w3.org/2000/svg">
<path d="M10.9992 6.76221C9.875 6.76221 8.79688 7.20878 8.00198 8.00368C7.20707 8.79859 6.7605 9.87671 6.7605 11.0009C6.7605 12.125 7.20707 13.2032 8.00198 13.9981C8.79688 14.793 9.875 15.2395 10.9992 15.2395C12.1233 15.2395 13.2015 14.793 13.9964 13.9981C14.7913 13.2032 15.2378 12.125 15.2378 11.0009C15.2378 9.87671 14.7913 8.79859 13.9964 8.00368C13.2015 7.20878 12.1233 6.76221 10.9992 6.76221ZM10.9992 13.7536C10.2688 13.7536 9.56844 13.4635 9.05203 12.9471C8.53562 12.4307 8.2455 11.7303 8.2455 11C8.2455 10.2696 8.53562 9.56923 9.05203 9.05282C9.56844 8.53641 10.2688 8.24629 10.9992 8.24629C11.7295 8.24629 12.4299 8.53641 12.9463 9.05282C13.4627 9.56923 13.7528 10.2696 13.7528 11C13.7528 11.7303 13.4627 12.4307 12.9463 12.9471C12.4299 13.4635 11.7295 13.7536 10.9992 13.7536Z" fill="white"/>
<path d="M15.4054 7.5945C15.9512 7.5945 16.3936 7.15208 16.3936 6.60633C16.3936 6.06058 15.9512 5.61816 15.4054 5.61816C14.8597 5.61816 14.4172 6.06058 14.4172 6.60633C14.4172 7.15208 14.8597 7.5945 15.4054 7.5945Z" fill="white"/>
<path d="M18.822 5.60181C18.6098 5.0538 18.2855 4.55615 17.8699 4.14069C17.4543 3.72524 16.9565 3.40114 16.4085 3.18914C15.7671 2.94838 15.0895 2.8182 14.4046 2.80414C13.5219 2.76564 13.2423 2.75464 11.0038 2.75464C8.76529 2.75464 8.47837 2.75464 7.60295 2.80414C6.91856 2.81748 6.24148 2.94769 5.60095 3.18914C5.05273 3.40089 4.55482 3.7249 4.13918 4.14039C3.72353 4.55588 3.39933 5.05366 3.18737 5.60181C2.94657 6.24312 2.81668 6.92074 2.80329 7.60564C2.76387 8.48747 2.75195 8.76706 2.75195 11.0065C2.75195 13.245 2.75195 13.5301 2.80329 14.4073C2.81704 15.093 2.94629 15.7695 3.18737 16.4121C3.39992 16.96 3.72444 17.4576 4.14019 17.873C4.55593 18.2884 5.05376 18.6126 5.60187 18.8247C6.24118 19.0751 6.91854 19.2147 7.60479 19.2372C8.48754 19.2757 8.76712 19.2876 11.0056 19.2876C13.2441 19.2876 13.531 19.2876 14.4065 19.2372C15.0913 19.2233 15.7688 19.0934 16.4103 18.8531C16.9582 18.6406 17.4559 18.3163 17.8714 17.9007C18.287 17.4851 18.6114 16.9875 18.8239 16.4396C19.065 15.7979 19.1942 15.1214 19.208 14.4357C19.2474 13.5539 19.2593 13.2743 19.2593 11.0349C19.2593 8.79547 19.2593 8.5113 19.208 7.63406C19.1973 6.93947 19.0667 6.25195 18.822 5.60181ZM17.7055 14.3395C17.6996 14.8678 17.6032 15.3911 17.4205 15.8868C17.2828 16.2433 17.072 16.567 16.8018 16.8371C16.5315 17.1072 16.2077 17.3178 15.8511 17.4552C15.3609 17.6371 14.8431 17.7336 14.3203 17.7403C13.4495 17.7806 13.2038 17.7907 10.9708 17.7907C8.73595 17.7907 8.5077 17.7907 7.62037 17.7403C7.0978 17.7339 6.58025 17.6375 6.09045 17.4552C5.73267 17.3186 5.40754 17.1084 5.1361 16.8383C4.86467 16.5681 4.65297 16.2439 4.5147 15.8868C4.33453 15.3964 4.23816 14.8792 4.22962 14.3569C4.1902 13.4861 4.18104 13.2404 4.18104 11.0074C4.18104 8.77347 4.18104 8.54522 4.22962 7.65697C4.23554 7.12899 4.33197 6.60594 4.5147 6.11055C4.79429 5.38731 5.3672 4.81806 6.09045 4.54122C6.58049 4.35985 7.09789 4.26344 7.62037 4.25614C8.49212 4.21672 8.73687 4.20572 10.9708 4.20572C13.2047 4.20572 13.4339 4.20572 14.3203 4.25614C14.8432 4.26243 15.361 4.35887 15.8511 4.54122C16.2076 4.67897 16.5314 4.88974 16.8017 5.16C17.0719 5.43026 17.2827 5.75404 17.4205 6.11055C17.6006 6.60093 17.697 7.11812 17.7055 7.64047C17.745 8.51222 17.755 8.75697 17.755 10.9909C17.755 13.2239 17.755 13.4641 17.7156 14.3404H17.7055V14.3395Z" fill="white"/>
</svg>
