<svg width="152" height="38" viewBox="0 0 152 38" fill="none" xmlns="http://www.w3.org/2000/svg">
<g clip-path="url(#clip0_123_31)">
<path d="M60.1022 23.4832C59.6501 23.4832 59.2229 23.424 58.8181 23.3055C58.4133 23.187 58.0705 23.0347 57.7923 22.8514C57.5142 22.6653 57.2931 22.5017 57.1267 22.355C56.9603 22.2083 56.8212 22.0645 56.7095 21.9235L57.534 20.9335C58.2444 21.7289 59.0839 22.1265 60.0475 22.1265C60.6188 22.1265 61.036 22.0194 61.2993 21.8078C61.5625 21.5963 61.6967 21.3284 61.6967 21.004C61.6967 20.9109 61.6867 20.8235 61.6693 20.7445C61.652 20.6655 61.6222 20.595 61.5799 20.533C61.5377 20.4709 61.5005 20.4145 61.4682 20.3609C61.4359 20.3102 61.3788 20.2622 61.2993 20.2143C61.2173 20.1663 61.1577 20.1325 61.1205 20.1071C61.0807 20.0845 61.0112 20.0535 60.9093 20.0197C60.8075 19.983 60.738 19.9576 60.7032 19.9435C60.6684 19.9266 60.5914 19.904 60.4697 19.873C60.3505 19.842 60.2785 19.8222 60.2586 19.8138C60.1096 19.7658 59.8985 19.7066 59.6253 19.6361C59.3496 19.5656 59.1137 19.4979 58.9125 19.4302C58.7113 19.3625 58.5126 19.2835 58.3164 19.1876C57.472 18.7956 57.0497 18.1582 57.0497 17.2754C57.0497 16.7959 57.1913 16.3756 57.4769 16.0118C57.7625 15.6508 58.1177 15.3828 58.5449 15.208C58.9696 15.0359 59.4266 14.9485 59.9134 14.9485C60.4697 14.9485 61.0112 15.05 61.5352 15.2559C62.0593 15.4618 62.4939 15.7326 62.8391 16.071L62.2058 17.1343C61.5228 16.5505 60.7628 16.26 59.9233 16.26C59.4713 16.26 59.0963 16.3418 58.7982 16.5026C58.4977 16.6633 58.3487 16.9087 58.3487 17.2415C58.3487 17.5236 58.4679 17.7464 58.7088 17.9071C58.9497 18.0679 59.3769 18.2287 59.9978 18.3838C60.8845 18.6038 61.5203 18.8323 61.9003 19.0692C62.633 19.5176 62.9981 20.172 62.9981 21.0294C62.9981 21.4468 62.9112 21.8191 62.7348 22.1519C62.5585 22.4819 62.3275 22.7414 62.0369 22.9247C61.7488 23.1109 61.4384 23.2491 61.108 23.345C60.7777 23.4409 60.4399 23.4832 60.1022 23.4832Z" fill="black"/>
<path d="M70.772 15.0923H71.9865V23.3421H70.7074V17.5827L68.3306 21.2296L65.9661 17.5715V23.3421H64.6995V15.0923H65.8718L68.3231 18.9394L70.772 15.0923Z" fill="black"/>
<path d="M57.2087 37.5064V29.2566H62.7771V30.5907H58.4978V32.4804H61.6669V33.8257H58.4978V36.1639H62.8293V37.5092L57.2087 37.5064Z" fill="black"/>
<path d="M64.5381 37.5064V29.2566H65.7104L69.6942 35.0413L69.7041 29.2566H70.9708V37.5064H69.8084L65.8048 31.6991V37.5064C65.8048 37.5064 64.5381 37.5064 64.5381 37.5064Z" fill="black"/>
<path d="M74.8401 37.5064V30.6019H72.5154V29.2566H78.4637V30.6019H76.139V37.5064C76.139 37.5064 74.8401 37.5064 74.8401 37.5064Z" fill="black"/>
<path d="M80.0061 37.5064V29.2566H85.5745V30.5907H81.2951V32.4804H84.4643V33.8257H81.2951V36.1639H85.6266V37.5092L80.0061 37.5064Z" fill="black"/>
<path d="M87.3379 37.5064V29.2566H91.1106C91.4906 29.2566 91.8259 29.3327 92.114 29.4822C92.4021 29.6317 92.6231 29.832 92.7746 30.083C92.9262 30.334 93.0379 30.5991 93.1124 30.8727C93.1869 31.1491 93.2242 31.4368 93.2242 31.733C93.2242 32.2604 93.1075 32.7483 92.8765 33.1968C92.643 33.6452 92.2804 33.947 91.7886 34.105L93.6166 37.5036H92.181L90.4599 34.2234H88.6319V37.5036L87.3379 37.5064ZM88.6244 32.8809H90.9814C91.2919 32.8809 91.5278 32.7793 91.6893 32.5734C91.8507 32.3676 91.9327 32.0912 91.9327 31.7358C91.9327 31.3973 91.8557 31.1266 91.6992 30.9207C91.5452 30.7148 91.3217 30.6132 91.0336 30.6132H88.6244V32.8809V32.8809Z" fill="black"/>
<path d="M96.5498 37.5064V30.6019H94.2251V29.2566H100.173V30.6019H97.8488V37.5064C97.8488 37.5064 96.5498 37.5064 96.5498 37.5064Z" fill="black"/>
<path d="M100.129 37.5065L103.574 29.2087H104.704L108.149 37.5065H106.775L105.993 35.583H102.233L101.43 37.5065H100.129V37.5065ZM102.781 34.2715H105.454L104.133 31.0364L102.781 34.2715Z" fill="black"/>
<path d="M109.448 37.5064V29.2566H110.736V37.5064C110.736 37.5064 109.448 37.5064 109.448 37.5064Z" fill="black"/>
<path d="M112.882 37.5064V29.2566H114.055L118.038 35.0413L118.048 29.2566H119.315V37.5064H118.153L114.149 31.6991V37.5064H112.882Z" fill="black"/>
<path d="M127.459 29.2566H128.674V37.5064H127.395V31.7471L125.018 35.3939L122.651 31.7358V37.5064H121.384V29.2566H122.556L125.008 33.1037L127.459 29.2566Z" fill="black"/>
<path d="M130.745 37.5064V29.2566H136.313V30.5907H132.034V32.4804H135.203V33.8257H132.034V36.1639H136.365V37.5092L130.745 37.5064Z" fill="black"/>
<path d="M138.077 37.5064V29.2566H139.249L143.233 35.0413L143.243 29.2566H144.509V37.5064H143.347L139.343 31.6991V37.5064C139.343 37.5064 138.077 37.5064 138.077 37.5064Z" fill="black"/>
<path d="M148.376 37.5064V30.6019H146.052V29.2566H152V30.6019H149.675V37.5064H148.376Z" fill="black"/>
<path d="M41.4101 23.0262C41.4101 25.1895 42.9599 26.9494 44.8648 26.9494C46.7698 26.9494 48.3196 25.1895 48.3196 23.0262L48.3171 7.62649C48.3171 4.97808 46.4196 2.82043 44.085 2.82043C43.3672 2.82043 42.6743 3.0235 42.0608 3.40144C41.6808 1.47789 40.1633 0.033818 38.3576 0.033818C37.3443 0.033818 36.3906 0.48227 35.6728 1.29738L26.8682 11.2959L18.5306 1.93481C16.258 -0.645912 12.5624 -0.645912 10.2923 1.93481C10.0017 2.2648 9.74837 2.623 9.5298 3.00094C9.52732 3.00094 9.52235 3.00094 9.51987 3.00094C7.96262 3.00094 6.49974 3.68913 5.39948 4.93859C3.12693 7.51931 3.12693 11.7161 5.39948 14.294L16.8566 27.3048C17.8153 28.3935 18.3443 29.8432 18.3443 31.386C18.3443 32.5001 18.0686 33.5662 17.552 34.4829C16.5983 34.2685 15.6868 33.7439 14.9492 32.9062L5.1834 21.8134C4.60967 21.1619 3.84719 20.8037 3.03503 20.8037C2.22288 20.8037 1.46039 21.1619 0.886667 21.8134C0.315425 22.4621 0 23.328 0 24.2503C0 25.1725 0.315425 26.0384 0.88915 26.6899L9.14484 36.0651C10.2451 37.3146 11.708 38.0028 13.2652 38.0028C14.8225 38.0028 16.2854 37.3146 17.3856 36.0651C17.5719 35.8536 17.7408 35.6336 17.8973 35.4023C18.1109 35.4277 18.3269 35.4418 18.5455 35.4418C20.1027 35.4418 21.5656 34.7536 22.6659 33.5042C23.7661 32.2547 24.3722 30.5935 24.3722 28.825C24.3722 27.0566 23.7661 25.3954 22.6659 24.1459L10.8188 10.6923C9.19451 8.84774 8.90144 6.04985 9.94209 3.864C11.1392 3.974 12.2544 4.55783 13.1137 5.53371L20.4877 13.9076C21.9034 15.5153 24.2058 15.5153 25.6214 13.9076L26.8732 12.4861L27.894 13.6312C29.5407 15.5012 32.218 15.5012 33.8622 13.6312L41.4076 5.06269L41.4101 23.0262ZM42.1552 4.3463C42.1552 4.34065 42.1552 4.33501 42.1552 4.32937C42.7214 3.89784 43.3895 3.66657 44.0875 3.66657C46.0098 3.66657 47.5745 5.44345 47.5745 7.62649L47.577 23.0262C47.577 24.7241 46.36 26.1033 44.8673 26.1033C43.3746 26.1033 42.1577 24.7213 42.1577 23.0262L42.1552 4.3463ZM16.8566 35.4644C14.8746 37.7151 11.6508 37.7151 9.67137 35.4644L1.41569 26.0892C0.983529 25.5984 0.745098 24.9441 0.745098 24.2503C0.745098 23.5564 0.983529 22.9021 1.41569 22.4113C1.84784 21.9206 2.42405 21.6498 3.03503 21.6498C3.64601 21.6498 4.22222 21.9206 4.65438 22.4113L14.4201 33.5013C15.1603 34.3418 16.0668 34.9285 17.0553 35.2246C16.9932 35.3064 16.9261 35.3854 16.8566 35.4644ZM10.2923 11.2903L22.1369 24.741C24.1188 26.9917 24.1188 30.6527 22.1369 32.9006C21.1012 34.0767 19.7302 34.6408 18.3667 34.5844C18.841 33.6142 19.0919 32.5198 19.0919 31.3832C19.0919 29.6148 18.4859 27.9535 17.3856 26.7041L5.92601 13.6961C4.96732 12.6074 4.4383 11.1577 4.4383 9.61491C4.4383 8.07494 4.96732 6.62522 5.92601 5.53371C6.78784 4.55501 7.90797 3.97117 9.11007 3.86118C8.1315 6.30369 8.52641 9.28773 10.2923 11.2903ZM25.0949 13.3125C23.9698 14.5902 22.1393 14.5902 21.0142 13.3125L13.6403 4.93859C12.7486 3.92605 11.621 3.28298 10.3991 3.07427C10.5282 2.8853 10.6673 2.70479 10.8188 2.53274C12.7983 0.282018 16.0221 0.282018 18.0041 2.53556L26.3417 11.8967L25.0949 13.3125ZM41.0946 4.22784L33.3357 13.0389C31.9796 14.5789 29.7766 14.5789 28.418 13.0361L27.3973 11.891L36.1993 1.89532C36.7756 1.24097 37.5405 0.879955 38.3576 0.879955C39.9149 0.879955 41.2014 2.21121 41.3852 3.92323C41.2859 4.01912 41.1865 4.12066 41.0946 4.22784Z" fill="black"/>
<path d="M44.8848 29.158C42.8332 29.158 41.1692 31.0477 41.1692 33.3774C41.1692 35.7071 42.8332 37.5968 44.8848 37.5968C46.9363 37.5968 48.6003 35.7071 48.6003 33.3774C48.6003 31.0477 46.9363 29.158 44.8848 29.158ZM44.8848 36.7506C43.248 36.7506 41.9143 35.2389 41.9143 33.3774C41.9143 31.5159 43.2455 30.0041 44.8848 30.0041C46.524 30.0041 47.8552 31.5159 47.8552 33.3774C47.8552 35.2389 46.5215 36.7506 44.8848 36.7506Z" fill="black"/>
</g>
<defs>
<clipPath id="clip0_123_31">
<rect width="152" height="38" fill="white"/>
</clipPath>
</defs>
</svg>
