<svg width="60" height="60" viewBox="0 0 60 60" fill="none" xmlns="http://www.w3.org/2000/svg">
<path d="M35.7075 8.75254L16.275 28.6875C15.9337 29.0377 15.7427 29.5073 15.7427 29.9963C15.7427 30.4853 15.9337 30.9549 16.275 31.305L35.7075 51.2475C35.8665 51.4108 36.0566 51.5406 36.2665 51.6292C36.4765 51.7178 36.7021 51.7635 36.93 51.7635C37.1579 51.7635 37.3835 51.7178 37.5935 51.6292C37.8034 51.5406 37.9935 51.4108 38.1525 51.2475C38.4796 50.9127 38.6627 50.4631 38.6627 49.995C38.6627 49.5269 38.4796 49.0774 38.1525 48.7425L19.8787 29.9963L38.1525 11.2538C38.4785 10.9191 38.6609 10.4704 38.6609 10.0032C38.6609 9.53596 38.4785 9.08723 38.1525 8.75254C37.9935 8.58925 37.8034 8.45946 37.5935 8.37085C37.3835 8.28223 37.1579 8.23657 36.93 8.23657C36.7021 8.23657 36.4765 8.28223 36.2665 8.37085C36.0566 8.45946 35.8665 8.58925 35.7075 8.75254Z" fill="#252525" fill-opacity="0.75"/>
</svg>
