<svg width="60" height="60" viewBox="0 0 60 60" fill="none" xmlns="http://www.w3.org/2000/svg">
<path d="M19.9726 8.74878C19.6455 9.08365 19.4624 9.53318 19.4624 10.0013C19.4624 10.4694 19.6455 10.9189 19.9726 11.2538L38.2464 30L19.9726 48.7425C19.6455 49.0774 19.4624 49.5269 19.4624 49.995C19.4624 50.4631 19.6455 50.9127 19.9726 51.2475C20.1316 51.4108 20.3217 51.5406 20.5316 51.6292C20.7416 51.7178 20.9672 51.7635 21.1951 51.7635C21.423 51.7635 21.6486 51.7178 21.8586 51.6292C22.0685 51.5406 22.2586 51.4108 22.4176 51.2475L41.8501 31.3088C42.1914 30.9586 42.3824 30.489 42.3824 30C42.3824 29.5111 42.1914 29.0414 41.8501 28.6913L22.4176 8.75254C22.2586 8.58925 22.0685 8.45946 21.8586 8.37085C21.6486 8.28223 21.423 8.23657 21.1951 8.23657C20.9672 8.23657 20.7416 8.28223 20.5316 8.37085C20.3217 8.45946 20.1316 8.58925 19.9726 8.75254V8.74878Z" fill="#252525" fill-opacity="0.75"/>
</svg>
