<svg width="22" height="22" viewBox="0 0 22 22" fill="none" xmlns="http://www.w3.org/2000/svg">
<path d="M17.9968 7.33058C18.0088 7.491 18.0088 7.6505 18.0088 7.81C18.0088 12.6912 14.2935 18.3159 7.50375 18.3159C5.41192 18.3159 3.46859 17.71 1.83325 16.6577C2.13025 16.6916 2.41625 16.7035 2.72517 16.7035C4.38708 16.7075 6.00193 16.1518 7.30942 15.1259C6.53889 15.112 5.79195 14.8578 5.17289 14.3988C4.55383 13.9398 4.09355 13.2989 3.85634 12.5657C4.08459 12.5996 4.31375 12.6225 4.55392 12.6225C4.88484 12.6225 5.21759 12.5767 5.5265 12.4969C4.69028 12.3281 3.93835 11.8748 3.39857 11.2142C2.85879 10.5536 2.56447 9.72643 2.56567 8.87333V8.8275C3.05792 9.10158 3.629 9.273 4.234 9.29592C3.72717 8.95912 3.31158 8.5021 3.02431 7.96564C2.73705 7.42918 2.58704 6.82995 2.58767 6.22142C2.58767 5.53575 2.77009 4.90692 3.09 4.35875C4.0178 5.50002 5.17496 6.43368 6.48656 7.09927C7.79816 7.76486 9.23493 8.14753 10.7038 8.2225C10.647 7.9475 10.6122 7.66242 10.6122 7.37642C10.6119 6.89146 10.7073 6.41122 10.8927 5.96314C11.0782 5.51505 11.3502 5.10792 11.6931 4.765C12.036 4.42209 12.4431 4.15013 12.8912 3.96465C13.3393 3.77918 13.8195 3.68384 14.3045 3.68408C15.3678 3.68408 16.3276 4.12958 17.0023 4.85008C17.8289 4.69023 18.6216 4.38847 19.3453 3.95817C19.0697 4.81141 18.4925 5.53493 17.7218 5.99317C18.455 5.90955 19.1715 5.71675 19.8476 5.42117C19.3426 6.15734 18.7169 6.8029 17.9968 7.33058Z" fill="white"/>
</svg>
