<svg width="22" height="22" viewBox="0 0 22 22" fill="none" xmlns="http://www.w3.org/2000/svg">
<path d="M19.7936 6.60268C19.6892 6.21529 19.4852 5.86201 19.2018 5.578C18.9184 5.29398 18.5656 5.08913 18.1785 4.98384C16.743 4.58968 11.0001 4.58326 11.0001 4.58326C11.0001 4.58326 5.25806 4.57684 3.82164 4.95359C3.43474 5.06373 3.08264 5.27147 2.79916 5.55688C2.51568 5.84229 2.31032 6.19579 2.20281 6.58343C1.82422 8.01893 1.82056 10.9963 1.82056 10.9963C1.82056 10.9963 1.81689 13.9883 2.19272 15.4091C2.40356 16.1947 3.02231 16.8153 3.80881 17.027C5.25898 17.4212 10.9863 17.4276 10.9863 17.4276C10.9863 17.4276 16.7292 17.434 18.1647 17.0582C18.552 16.9531 18.9052 16.7487 19.1892 16.4653C19.4733 16.1818 19.6785 15.8291 19.7845 15.4421C20.164 14.0075 20.1667 11.0311 20.1667 11.0311C20.1667 11.0311 20.1851 8.03818 19.7936 6.60268ZM9.16306 13.7545L9.16764 8.25451L13.9407 11.0091L9.16306 13.7545Z" fill="white"/>
</svg>
